<svg width="30" height="30" viewBox="0 0 30 30" xmlns="http://www.w3.org/2000/svg"><title>github-icon</title><path d="M14.565 14.465h-.045c-1.804 0-3.393-.459-4.334.406a2.377 2.377 0 0 0-.799 1.813c0 2.806 2.247 3.151 5.134 3.151h.044c2.886 0 5.134-.347 5.134-3.15 0-.672-.236-1.297-.798-1.814-.943-.865-2.532-.406-4.336-.406zM12.108 18.3c-.55 0-.994-.618-.994-1.378 0-.76.444-1.376.994-1.376s.995.615.995 1.376c.002.76-.443 1.378-.995 1.378zm4.867 0c-.55 0-.995-.618-.995-1.378 0-.76.445-1.376.995-1.376.549 0 .994.615.994 1.376.002.76-.444 1.378-.994 1.378zM14.543 0C6.51 0 0 6.51 0 14.543c0 8.031 6.51 14.542 14.543 14.542 8.031 0 14.542-6.51 14.542-14.542S22.575 0 14.543 0zm1.327 20.51c-.261 0-.78 0-1.327.002-.549-.003-1.067-.003-1.328-.003-1.15 0-5.713-.089-5.713-5.588 0-1.263.433-2.189 1.143-2.961-.112-.279-.118-1.867.485-3.387 0 0 1.388.151 3.486 1.592.437-.123 1.183-.185 1.927-.185.743 0 1.487.062 1.928.183 2.098-1.44 3.486-1.592 3.486-1.592.602 1.52.598 3.11.484 3.387.71.773 1.144 1.698 1.144 2.962-.002 5.502-4.564 5.59-5.715 5.59z" fill="#FFF" fill-rule="evenodd"/></svg>