<svg width="63" height="63" viewBox="0 0 63 63" xmlns="http://www.w3.org/2000/svg"><title>globe-icon</title><path d="M15.282 21.282c.671 0 1.322.098 1.933.289a52.952 52.952 0 0 1 7.664-7.05 6.493 6.493 0 0 1 .161-3.612 48.363 48.363 0 0 0-10.107-5.552 31.05 31.05 0 0 0-8.668 7.993 48.324 48.324 0 0 0 6.17 8.584 6.505 6.505 0 0 1 2.847-.652zm-6.573 6.57c0-.923.195-1.803.534-2.595a53.405 53.405 0 0 1-5.69-7.483 30.766 30.766 0 0 0-3.29 13.868c0 5.77 1.591 11.171 4.347 15.794a52.414 52.414 0 0 1 5.438-15.616 6.534 6.534 0 0 1-1.34-3.968zM31.267 6.425A6.54 6.54 0 0 1 35.752 8.2a52.292 52.292 0 0 1 10.792-3.33A30.729 30.729 0 0 0 31.146.755c-3.823 0-7.482.702-10.863 1.974a52.906 52.906 0 0 1 7.644 4.616 6.494 6.494 0 0 1 3.34-.92zm9.822 30.947a6.51 6.51 0 0 1 1.709-2.202 48.123 48.123 0 0 0-8.97-16.123 6.505 6.505 0 0 1-2.564.517c-1.427 0-2.74-.46-3.817-1.226a48.147 48.147 0 0 0-6.593 6.053 6.477 6.477 0 0 1 .997 3.46c0 .682-.104 1.343-.302 1.968a47.842 47.842 0 0 0 19.54 7.553zm8.523 8.872c.088 1.245.138 2.498.138 3.763a53.28 53.28 0 0 1-.41 6.583 30.937 30.937 0 0 0 11.236-15.573c-2.383.578-4.827.99-7.321 1.226a6.573 6.573 0 0 1-3.643 4.001zm-10.06-4.455a52.51 52.51 0 0 1-20.846-8.338 6.556 6.556 0 0 1-4.777.832 47.73 47.73 0 0 0-5.368 18.41 30.893 30.893 0 0 0 10.558 7.401A52.577 52.577 0 0 1 39.552 41.79zM51.878 8.748a47.99 47.99 0 0 0-14.075 3.585 6.532 6.532 0 0 1-.641 3.545 52.637 52.637 0 0 1 9.966 17.761 6.583 6.583 0 0 1 5.942 4.011 47.793 47.793 0 0 0 8.654-1.691c.201-1.41.309-2.854.309-4.32-.004-9.078-3.918-17.242-10.155-22.891zm-9.02 36.55a47.974 47.974 0 0 0-19.211 16.3c2.4.601 4.911.923 7.5.923 4.655 0 9.07-1.037 13.03-2.883.638-3.115.974-6.334.974-9.63 0-1.193-.054-2.374-.144-3.542a6.457 6.457 0 0 1-2.149-1.169z" fill="#FFF" fill-rule="evenodd"/></svg>