<svg width="356" height="79" viewBox="0 0 356 79" xmlns="http://www.w3.org/2000/svg"><title>logo</title><g fill="none" fill-rule="evenodd"><path d="M136.278 62.936h10.043l-9.913-18.913c6.065-1.761 9.848-6.653 9.848-13.11 0-8.021-5.74-14.217-14.74-14.217h-18.065v46.24h9.066V45.13h4.695l9.066 17.805zM122.517 37.37V24.522h7.304c4.565 0 7.24 2.544 7.24 6.457 0 3.783-2.675 6.391-7.24 6.391h-7.304zm35.596 5.87c.196-2.935 2.674-6.326 7.174-6.326 4.956 0 7.043 3.13 7.174 6.326h-14.348zm15.196 8.348c-1.044 2.87-3.261 4.891-7.305 4.891-4.304 0-7.891-3.065-8.087-7.304h22.957c0-.13.13-1.435.13-2.674 0-10.305-5.934-16.63-15.848-16.63-8.217 0-15.782 6.651-15.782 16.89 0 10.827 7.76 17.153 16.565 17.153 7.891 0 12.978-4.63 14.609-10.174l-7.24-2.152zM184.253 54c.39 3.652 3.717 9.913 13.37 9.913 8.412 0 12.456-5.348 12.456-10.565 0-4.696-3.196-8.544-9.522-9.848l-4.565-.979c-1.761-.326-2.935-1.304-2.935-2.87 0-1.825 1.826-3.195 4.109-3.195 3.652 0 5.022 2.413 5.282 4.305l7.24-1.63c-.392-3.457-3.457-9.262-12.587-9.262-6.914 0-12 4.761-12 10.5 0 4.5 2.804 8.218 9 9.587l4.239.979c2.478.521 3.456 1.695 3.456 3.13 0 1.696-1.37 3.196-4.239 3.196-3.783 0-5.674-2.348-5.87-4.892L184.253 54zm40.618-9.913c.195-3.522 2.347-6.261 6-6.261 4.174 0 5.935 2.804 5.935 6.391v18.718h8.674V42.718c0-7.043-3.783-12.717-11.935-12.717-3.066 0-6.587 1.043-8.674 3.521V15.718h-8.674v47.218h8.674V44.088zm26.596 10.108c0 5.022 4.174 9.653 11.022 9.653 4.76 0 7.826-2.218 9.456-4.761 0 1.239.13 3 .326 3.848h7.957c-.196-1.109-.391-3.392-.391-5.087V42.066c0-6.457-3.783-12.196-13.957-12.196-8.609 0-13.24 5.544-13.76 10.566l7.695 1.63c.26-2.804 2.348-5.217 6.13-5.217 3.652 0 5.413 1.89 5.413 4.173 0 1.11-.587 2.022-2.413 2.283l-7.891 1.174c-5.348.783-9.587 3.978-9.587 9.717zm12.848 3.196c-2.805 0-4.174-1.826-4.174-3.717 0-2.479 1.76-3.718 3.978-4.044l7.24-1.108v1.434c0 5.674-3.392 7.435-7.044 7.435zm32.074 17.935V59.805c1.566 2.152 4.826 3.913 9.261 3.913 9.066 0 15.13-7.174 15.13-16.891 0-9.522-5.412-16.696-14.804-16.696-4.826 0-8.413 2.152-9.848 4.63v-3.913h-8.413v44.48h8.674zm15.848-28.435c0 5.74-3.521 9.065-7.956 9.065-4.435 0-8.022-3.391-8.022-9.065 0-5.674 3.587-9 8.022-9 4.435 0 7.956 3.326 7.956 9zm20.857-3.652c.196-2.935 2.674-6.326 7.174-6.326 4.957 0 7.044 3.13 7.174 6.326h-14.348zm15.196 8.348c-1.043 2.87-3.26 4.891-7.304 4.891-4.305 0-7.892-3.065-8.087-7.304h22.956c0-.13.13-1.435.13-2.674 0-10.305-5.934-16.63-15.847-16.63-8.218 0-15.783 6.651-15.783 16.89 0 10.827 7.761 17.153 16.565 17.153 7.892 0 12.979-4.63 14.61-10.174l-7.24-2.152z" fill="#FFF"/><path d="M37.116 75.944S26.846 63.4 21.143 57.696C15.528 52.08 3.16 41.987 3.16 41.987a3.274 3.274 0 0 1 0-4.63S15.626 27.165 21.29 21.5c5.655-5.655 15.826-18.1 15.826-18.1a3.275 3.275 0 0 1 4.631 0s10.226 12.501 15.908 18.183c5.637 5.637 18.048 15.773 18.048 15.773a3.274 3.274 0 0 1 0 4.63S63.326 52.09 57.706 57.71c-5.699 5.699-15.959 18.234-15.959 18.234a3.277 3.277 0 0 1-4.631 0z" stroke="#0C6F89" stroke-width="4" fill="#13B0F5"/><path d="M59.077 57.134a2.183 2.183 0 0 1-2.183 2.183H21.97a2.183 2.183 0 0 1-2.183-2.183V22.21c0-1.205.978-2.183 2.183-2.183h34.925c1.205 0 2.183.978 2.183 2.183v34.925z" fill="#FFF" opacity=".2"/><path d="M23.481 40.959a1.821 1.821 0 0 1 0-2.573l14.664-14.663a1.817 1.817 0 0 1 2.571 0l14.665 14.663c.71.71.71 1.862 0 2.573L40.717 55.62c-.71.71-1.862.71-2.572 0L23.481 40.96z" fill="#64EBFF" opacity=".5"/><path d="M13.32 41.473a2.548 2.548 0 0 1 0-3.602l24.31-24.31a2.545 2.545 0 0 1 3.602 0l24.31 24.31a2.548 2.548 0 0 1 0 3.602l-24.31 24.31a2.547 2.547 0 0 1-3.6 0L13.32 41.473z" fill="#64EBFF" opacity=".2"/><path d="M22.347 26.845a1.09 1.09 0 0 1-1.543 0l-5.016-5.016a1.092 1.092 0 0 1 0-1.544l5.016-5.016a1.09 1.09 0 0 1 1.543 0l5.016 5.016a1.092 1.092 0 0 1 0 1.544l-5.016 5.016zM21.316 63.042a1.091 1.091 0 0 1-1.544 0l-5.016-5.016a1.091 1.091 0 0 1 0-1.543l5.016-5.016a1.091 1.091 0 0 1 1.544 0l5.016 5.016a1.092 1.092 0 0 1 0 1.543l-5.016 5.016zM58.649 63.148a1.09 1.09 0 0 1-1.543 0l-5.017-5.017a1.09 1.09 0 0 1 0-1.543l5.017-5.016a1.09 1.09 0 0 1 1.543 0l5.016 5.016a1.09 1.09 0 0 1 0 1.543l-5.016 5.017zM58.44 27.982a1.091 1.091 0 0 1-1.544 0l-5.015-5.017a1.091 1.091 0 0 1 0-1.543l5.015-5.017a1.091 1.091 0 0 1 1.544 0l5.016 5.017a1.091 1.091 0 0 1 0 1.543l-5.016 5.017z" fill="#0C6F89"/><path d="M28.926 51.814a1.638 1.638 0 0 1-1.637-1.638v-21.01c0-.903.733-1.637 1.637-1.637h21.01c.905 0 1.638.734 1.638 1.638v21.01c0 .903-.734 1.638-1.638 1.638h-21.01v-.001z" fill="#FFF" opacity=".2"/><path d="M35.234 35.474s2.122 4.247 0 8.492c0 0 4.245-2.122 8.491 0 0 0-2.123-4.245 0-8.492 0 0-4.246 2.124-8.491 0z" fill="#FFF"/></g></svg>