<svg width="72" height="44" viewBox="0 0 72 44" xmlns="http://www.w3.org/2000/svg"><title>plug-icon</title><path d="M0 35.915v5.38c0 .995.808 1.803 1.803 1.803h3.58c.992 0 1.8-.808 1.8-1.803v-5.38c0-3.445 2.877-8.164 7.183-9.981v-7.56C6.048 20.299 0 28.624 0 35.914zM43.331 2.518l-9.086 6.816a7.206 7.206 0 0 1-4.32 1.44h-8.358a3.61 3.61 0 0 0-3.61 3.61v14.333a3.609 3.609 0 0 0 3.61 3.606h8.357c1.559 0 3.074.507 4.32 1.44l9.09 6.817a12.576 12.576 0 0 0 7.55 2.518h6.58V0h-6.58c-2.722 0-5.373.883-7.553 2.518zm17.724 4.665v7.183h10.774V7.183H61.055zm0 28.732h10.774v-7.183H61.055v7.183z" fill="#F9F9F9" fill-rule="evenodd"/></svg>