<svg width="59" height="53" viewBox="0 0 59 53" xmlns="http://www.w3.org/2000/svg"><title>tools-icon</title><path d="M9.353 17.625c2.72-2.114 4.975-.656 7.986 2.83.338.393.793-.067 1.053-.292.256-.227 4.229-3.803 4.424-3.967.193-.172.426-.492.12-.85-.312-.36-1.44-1.823-2.166-2.773C15.5 5.68 35.187 1.004 32.164.931 30.625.891 24.451.818 23.527.92c-3.74.393-8.435 3.888-10.799 5.517-3.093 2.117-4.247 3.358-4.436 3.53-.875.764-.14 2.527-1.726 3.918-1.676 1.466-2.722.355-3.693 1.207-.481.425-1.828 1.434-2.212 1.769-.388.34-.458.915-.062 1.373 0 0 3.685 4.069 3.994 4.43.306.356 1.14.665 1.652.207.516-.454 1.843-1.612 2.064-1.816.227-.192-.146-2.51 1.044-3.43zm16.638 1.507c-.35-.406-.785-.417-1.158-.085l-4.18 3.65a.842.842 0 0 0-.078 1.165L44.75 51.375c.566.65 1.545.718 2.19.155l2.827-2.37a1.575 1.575 0 0 0 .151-2.21L25.991 19.133zm32.235-11.71c-.216-1.44-.962-1.139-1.35-.53-.388.615-2.101 3.212-2.807 4.39-.7 1.166-2.425 3.471-5.637 1.195-3.346-2.364-2.183-4.014-1.6-5.124.585-1.117 2.384-4.247 2.643-4.635.26-.393-.043-1.536-1.081-1.058-1.04.478-7.354 2.988-8.229 6.588-.894 3.66.75 6.934-2.477 10.184l-3.915 4.08 3.932 4.565 4.821-4.576c1.149-1.154 3.603-2.276 5.824-1.77 4.76 1.076 7.357-.71 8.923-3.666 1.404-2.64 1.171-8.202.953-9.642zM8.198 47.249a1.57 1.57 0 0 0 0 2.21l2.772 2.71c.607.61 1.569.353 2.175-.256L27.448 37.85l-4.381-4.996L8.198 47.248z" fill="#FFF" fill-rule="evenodd"/></svg>